<svg width="365" height="119" viewBox="0 0 365 119" fill="none" xmlns="http://www.w3.org/2000/svg">
<path d="M59.2291 9.60083e-05C64.6457 0.0236978 69.0238 4.39003 69.0002 9.74763C68.9766 15.1052 64.5749 19.448 59.1465 19.4244C53.7299 19.4008 49.3518 15.0344 49.3754 9.67683C49.399 4.30742 53.8125 -0.0235058 59.2291 9.60083e-05ZM65.0705 38.294C62.1675 33.8923 56.0429 33.8687 53.1044 38.2468C46.3779 48.2776 36.4062 64.6218 36.3708 73.4135C36.3236 86.6777 46.3897 97.4755 58.8633 97.5227C71.3368 97.5699 81.4856 86.8547 81.5328 73.5787C81.5682 64.787 71.7262 48.372 65.0705 38.294Z" fill="#FFCC00"/>
<path d="M86.0171 7.7489C83.598 6.52161 80.6359 7.45388 79.3968 9.83766C78.1459 12.2214 79.1018 15.1599 81.5092 16.399C98.0186 24.8248 108.238 41.4877 108.167 59.8616C108.132 68.0515 106.043 75.7575 102.397 82.5194C102.904 79.8996 103.187 77.209 103.199 74.4476C103.235 63.7677 99.3521 53.4656 92.248 45.441C90.4543 43.423 87.3506 43.2106 85.3091 44.9925C83.2675 46.7627 83.0669 49.8427 84.8488 51.8606C90.3717 58.1033 93.4045 66.1161 93.3691 74.424C93.2983 92.5973 78.7596 107.455 60.598 108.304C60.008 108.328 59.4179 108.34 58.8279 108.34C58.2378 108.34 57.6478 108.316 57.0577 108.293C38.8962 107.313 24.4637 92.3495 24.5345 74.1525C24.5581 66.3167 27.2015 58.9648 32.1579 52.8873C33.869 50.7986 33.5386 47.7303 31.4262 46.0428C29.3138 44.3553 26.222 44.6857 24.5109 46.7745C18.221 54.4804 14.7397 64.1926 14.7043 74.1171C14.6925 76.8785 14.9521 79.5809 15.436 82.2007C11.8367 75.4152 9.80696 67.6856 9.83056 59.5076C9.90137 41.1218 20.2389 24.5534 36.8192 16.2337C39.2384 15.0182 40.2061 12.0916 38.9788 9.69605C37.7515 7.30046 34.7895 6.34459 32.3703 7.54828C12.4858 17.52 0.0830199 37.4164 0.000413631 59.4604C-0.117595 90.9098 25.0301 116.707 56.5149 118.005C57.2702 118.04 58.0254 118.064 58.7925 118.075C91.3275 118.193 117.891 92.0899 118.009 59.8971C118.092 37.8412 105.831 17.8623 86.0171 7.7489Z" fill="#25E899"/>
<path d="M158.313 58.5541L174.611 41.8558H183.048L164.12 60.8081L183.154 83.7254H174.693L159.612 65.0918L158.313 66.3899V83.7136H152V41.8558H158.313V58.5541ZM214.675 47.7917H197.894V57.8578H214.191V63.7937H197.894V77.7895H214.675V83.7254H191.568V41.8558H214.675V47.7917ZM239.928 65.8706L252.886 83.7136H245.156L233.202 66.5787H232.057V83.7136H225.744V41.8558H233.143C238.678 41.8558 242.666 42.8943 245.133 44.9713C247.847 47.2842 249.204 50.3407 249.204 54.1405C249.204 57.1026 248.354 59.6516 246.655 61.7875C244.956 63.9117 242.713 65.2806 239.928 65.8706ZM232.069 61.0795H234.075C240.058 61.0795 243.056 58.7901 243.056 54.2232C243.056 49.9394 240.141 47.7917 234.323 47.7917H232.069V61.0795ZM261.961 83.7136V39L292.49 70.945V41.8558H298.803V86.2744L268.274 54.412V83.7254H261.961V83.7136ZM334.713 47.7917H317.932V57.8578H334.229V63.7937H317.932V77.7895H334.713V83.7254H311.607V41.8558H334.713V47.7917ZM352.108 41.8558V77.7777H364.416V83.7136H345.782V41.8558H352.108Z" fill="#212144"/>
</svg>
